<svg width="25" height="24" viewBox="0 0 25 24" fill="none" xmlns="http://www.w3.org/2000/svg">
<path d="M1.82236 13.2646C1.82237 12.5763 2.81404 12.1876 3.42585 12.05C3.51376 12.0302 3.58338 11.962 3.6005 11.8735L3.7927 10.8805C3.80095 10.8378 3.82178 10.7986 3.85251 10.7679L4.6077 10.0127C4.66434 9.95603 4.74752 9.93506 4.82425 9.95808L5.35868 10.1184C5.43224 10.1405 5.48874 10.1997 5.50737 10.2742L5.91869 11.9195C5.93465 11.9833 5.97859 12.0365 6.03825 12.0642L6.98902 12.5056C7.01775 12.5189 7.04905 12.5259 7.08072 12.5259H9.24145C9.29627 12.5259 9.34908 12.5052 9.38932 12.4679L10.8683 11.0999C10.8774 11.0914 10.8873 11.0838 10.8977 11.077L12.2402 10.2062C12.2915 10.173 12.3264 10.1196 12.3365 10.0593L12.5506 8.77448C12.5727 8.64175 12.4704 8.52092 12.3358 8.52092H9.42186C9.3612 8.52092 9.30281 8.49614 9.26486 8.44883C8.93069 8.03225 8.39329 6.93976 8.51018 5.33253C8.66571 3.19398 10.5321 0.666595 11.6986 0.666595C12.7995 0.666595 14.5584 4.61488 14.9162 5.05879C14.9431 5.09226 14.9846 5.08557 15.0212 5.06294C16.3418 4.24537 17.5338 5.69215 17.8984 6.03836C17.9546 6.09163 18.0218 6.06806 18.0625 6.00228C19.5611 3.58312 22.4809 3.60471 23.2856 5.09924C24.1022 6.61567 22.1192 11.0483 21.6915 11.7871C21.2637 12.5259 20.2528 12.7203 19.864 12.5259C16.239 10.363 15.3759 13.095 15.3904 14.828C15.3909 14.8968 15.4256 14.9592 15.4804 15.0008C16.0153 15.4066 16.9005 16.3468 16.7533 17.3473C16.5722 18.5788 15.1766 19.1017 14.9862 19.3247C14.9645 19.3501 14.9571 19.3849 14.9421 19.4148C13.9294 21.4276 11.8976 22.6498 10.943 23.0388C10.9029 23.0552 10.8594 23.058 10.8171 23.0484L9.84646 22.8293C9.74718 22.8068 9.67667 22.7186 9.67667 22.6168V21.8965C9.67667 21.8237 9.71356 21.7563 9.77186 21.7127C10.9156 20.8571 11.1961 18.8966 11.1968 17.829C11.1969 17.712 11.1012 17.6197 10.9842 17.6165C9.47297 17.5741 7.1291 17.0993 5.92597 16.8157C5.8073 16.7878 5.68875 16.8618 5.66211 16.9808L5.17912 19.1381C5.15127 19.2625 5.02304 19.3365 4.90143 19.2983L3.29693 18.795C3.20614 18.7665 3.14436 18.6823 3.14436 18.5872V17.9787C3.14436 17.8152 2.97084 17.71 2.82587 17.7857L2.36604 18.0256C2.29466 18.0628 2.20856 18.0576 2.14216 18.0121L1.07071 17.2774C0.970762 17.2089 0.945996 17.0719 1.01561 16.9727L2.34821 15.0738C2.40496 14.9929 2.3998 14.8844 2.34321 14.8035C2.12566 14.4922 1.82235 13.903 1.82236 13.2646Z" fill="white"/>
<path d="M8.72734 21.9488C9.60613 24.0579 13.3405 23.0376 14.9737 19.1305C16.9422 19.1305 17.9261 16.4961 15.2898 14.9123C15.6372 11.7539 17.4887 10.8374 19.6969 12.4434C20.1395 12.7653 20.7681 12.759 21.1136 12.3346C25.7299 6.66381 23.2903 0.341533 17.9261 6.41602M8.72734 21.9488C10.0983 21.9488 11.2368 19.8774 11.1805 17.4871M8.72734 21.9488C11.3426 22.9612 13.0411 18.8419 13.627 17.0492C11.8112 17.8234 8.61082 17.6616 5.68316 16.6177M16.1686 8.72565C16.7836 7.80949 17.3708 7.04486 17.9261 6.41602M17.9261 6.41602C16.9636 4.75473 15.7163 4.38284 14.5944 5.31597M14.5944 5.31597C14.3341 4.08567 13.4619 1.46336 12.0558 0.816577C10.4243 0.0660755 7.94466 3.67735 8.72209 7.77018C8.81566 8.26276 9.39338 8.49356 9.88454 8.39284C10.6001 8.24612 11.5976 8.24397 12.6986 8.72565M14.5944 5.31597C13.8749 5.91441 13.2069 7.0496 12.6986 8.72565M12.6986 8.72565C12.5523 9.20809 12.4192 9.73533 12.3019 10.3075C12.0441 10.2255 11.5215 10.2091 11.4934 10.7996M9.56008 13.3305C8.63484 12.8214 7.26697 12.3695 5.93948 12.1262M2.42335 14.8095C1.73268 14.1615 1.58429 13.5263 1.93222 12.7329C2.16005 12.2135 2.87068 11.9777 3.79524 11.9415M2.42335 14.8095L0.725616 17.161L2.28758 18.273L3.96519 15.8614M2.42335 14.8095C2.78932 15.1529 3.40867 15.5738 3.96519 15.8614M3.96519 15.8614C4.41466 16.0937 5.15066 16.4278 5.68316 16.6177M3.96519 15.8614L3.28079 18.7993L5.23645 19.3063L5.68316 16.6177" stroke="#1680DB" stroke-linejoin="round"/>
<path d="M12.1291 11.5075C12.2608 12.0475 12.3212 12.7561 12.0203 13.4008C11.8617 13.7407 11.6236 13.9459 11.3551 14.0443L11.175 13.3237C11.1468 13.211 11.0019 13.1791 10.9291 13.2696L10.3503 13.9887C9.68242 13.702 9.1855 12.9686 9.59489 12.2057C9.96057 11.5242 10.4756 11.1335 10.9169 10.911C11.4259 10.6544 11.9941 10.9538 12.1291 11.5075Z" stroke="#1680DB" stroke-linejoin="round"/>
<path d="M14.6686 12.5788C14.8003 13.1188 14.8608 13.8274 14.5599 14.4721C14.4013 14.8119 14.1632 15.0171 13.8947 15.1155L13.7146 14.3949C13.6864 14.2822 13.5415 14.2504 13.4686 14.3409L12.8899 15.0599C12.222 14.7733 11.7251 14.0399 12.1344 13.2769C12.5001 12.5954 13.0151 12.2047 13.4565 11.9822C13.9654 11.7256 14.5336 12.025 14.6686 12.5788Z" stroke="#1680DB" stroke-linejoin="round"/>
<path d="M17.9819 9.972C19.0272 7.70935 20.9145 6.46766 22.3372 6.74359" stroke="#1680DB" stroke-linejoin="round"/>
<path d="M10.8257 3.52327C11.7254 4.21875 12.1711 4.70272 12.8645 5.73782" stroke="#1680DB" stroke-linejoin="round"/>
<path d="M15.4655 11.2917C14.9148 11.3269 13.6165 11.594 12.8291 12.3814" stroke="#1680DB" stroke-linejoin="round"/>
<ellipse cx="4.8851" cy="11.7136" rx="1.12485" ry="1.72242" stroke="#1680DB" stroke-linejoin="round"/>
</svg>
