<svg width="21" height="20" viewBox="0 0 21 20" fill="none" xmlns="http://www.w3.org/2000/svg">
<path d="M2.5 18.5V1.5H14L14.5 10V13.5L17 10.5L18.5 10L19.5 10.5L20 12L14.5 17.5L11 18.5H2.5Z" fill="white"/>
<path d="M9.13757 18.5H2.59863L2.59863 1.5H14.2302V10.85" stroke="#781EC7" stroke-width="1.1" stroke-linejoin="round"/>
<path d="M4.83545 4.2684H9.30913" stroke="#781EC7" stroke-width="1.1" stroke-linejoin="round"/>
<path d="M4.83545 7.84738H11.9933" stroke="#781EC7" stroke-width="1.1" stroke-linejoin="round"/>
<path d="M4.83545 11.4263H9.30913" stroke="#781EC7" stroke-width="1.1" stroke-linejoin="round"/>
<path d="M17.3949 10.3607C17.9807 9.77488 18.9304 9.77488 19.5162 10.3607V10.3607C20.102 10.9464 20.102 11.8962 19.5162 12.482L14.4002 17.5981L10.7481 19.1288L12.2788 15.4767L17.3949 10.3607Z" stroke="#781EC7" stroke-width="1.1" stroke-linejoin="round"/>
<path d="M16.6172 11.4213L18.4557 13.2598" stroke="#781EC7" stroke-width="1.1" stroke-linejoin="round"/>
</svg>
