<svg width="20" height="20" viewBox="0 0 20 20" fill="none" xmlns="http://www.w3.org/2000/svg">
<path d="M1.875 18.5V1.5H13.375L13.875 10V13.5L16.375 10.5L17.875 10L18.875 10.5L19.375 12L13.875 17.5L10.375 18.5H1.875Z" fill="#781EC7"/>
<path d="M8.5125 18.5H1.97355L1.97356 1.5H13.6051V10.85" stroke="white" stroke-width="1.1" stroke-linejoin="round"/>
<path d="M4.21037 4.26841H8.68406" stroke="white" stroke-width="1.1" stroke-linejoin="round"/>
<path d="M4.21037 7.84739H11.3683" stroke="white" stroke-width="1.1" stroke-linejoin="round"/>
<path d="M4.21037 11.4263H8.68406" stroke="white" stroke-width="1.1" stroke-linejoin="round"/>
<path d="M16.77 10.3607C17.3557 9.77487 18.3055 9.77487 18.8913 10.3607V10.3607C19.4771 10.9464 19.4771 11.8962 18.8913 12.482L13.7752 17.5981L10.1231 19.1288L11.6539 15.4767L16.77 10.3607Z" stroke="white" stroke-width="1.1" stroke-linejoin="round"/>
<path d="M15.9921 11.4213L17.8306 13.2598" stroke="white" stroke-width="1.1" stroke-linejoin="round"/>
</svg>
