<svg width="21" height="21" viewBox="0 0 21 21" fill="none" xmlns="http://www.w3.org/2000/svg">
<path d="M1.39411 9.44924C1.39411 10.3252 1.90189 11.2423 2.15578 11.5914L0.828296 12.8735C0.769543 13.4934 0.687289 14.9909 0.828296 16.021C0.969303 17.0511 2.37502 17.5594 3.06026 17.6848V18.9701H10.7246V15.1142L11.7719 16.3043L12.962 17.6848H13.6761L16.4371 16.7327L17.1512 16.3043V15.3998L16.4371 14.7333L14.5329 15.1142H13.6761L12.3431 12.5911H17.5796C19.2172 12.5911 19.5314 11.4486 19.4838 10.8774V3.92712C19.4838 2.0991 18.2144 1.51516 17.5796 1.45168H3.34589C2.05104 1.45168 1.50518 2.18162 1.39411 2.54658V9.44924Z" fill="#008EA1"/>
<path d="M2.6516 14.0842L2.79785 15.6215L5.17284 14.8221C5.69729 14.6456 6.26278 14.936 6.43591 15.4707C6.60904 16.0054 6.32424 16.5819 5.79979 16.7584L3.43892 17.5529C2.21933 17.9634 0.935104 17.132 0.810393 15.8512L0.658443 14.2907C0.486734 12.5273 1.87257 11 3.64432 11H9.41454C10.5132 11 11.5239 11.6005 12.0493 12.5654L13.287 14.8386C13.5155 15.2582 14.009 15.4576 14.4649 15.3144L15.9712 14.8414C16.498 14.676 17.0594 14.9681 17.2252 15.494C17.3909 16.0199 17.0982 16.5803 16.5714 16.7457L14.2787 17.4657C13.3669 17.7521 12.3799 17.3533 11.9229 16.514L10.6 14.0842V19H2.89636V17.7948" stroke="white" stroke-linecap="round" stroke-linejoin="round"/>
<circle cx="6.55786" cy="6.03113" r="2.57446" stroke="white"/>
<path d="M14.4389 12.7025H17.5203C18.6248 12.7025 19.5203 11.807 19.5203 10.7025V3.43372C19.5203 2.32915 18.6248 1.43372 17.5203 1.43372H3.26904C2.16447 1.43372 1.26904 2.32915 1.26904 3.43372L1.26904 9.59146" stroke="white" stroke-linecap="round"/>
</svg>
