<svg width="21" height="21" viewBox="0 0 21 21" fill="none" xmlns="http://www.w3.org/2000/svg">
<path d="M1.76916 9.44924C1.76916 10.3252 2.27694 11.2423 2.53083 11.5914L1.20335 12.8735C1.14459 13.4935 1.06234 14.9909 1.20335 16.021C1.34435 17.0511 2.75007 17.5594 3.43531 17.6848V18.9701H11.0996V15.1142L12.1469 16.3043L13.337 17.6848H14.0511L16.8122 16.7327L17.5262 16.3043V15.3998L16.8122 14.7333L14.908 15.1142H14.0511L12.7182 12.5911H17.9547C19.5923 12.5911 19.9065 11.4486 19.8589 10.8774V3.92712C19.8589 2.09911 18.5894 1.51516 17.9547 1.45169H3.72094C2.42609 1.45169 1.88023 2.18162 1.76916 2.54659V9.44924Z" fill="white"/>
<path d="M3.0266 14.0842L3.17285 15.6215L5.54784 14.8221C6.07229 14.6456 6.63778 14.936 6.81091 15.4707C6.98404 16.0054 6.69924 16.5819 6.17479 16.7584L3.81392 17.5529C2.59433 17.9634 1.3101 17.132 1.18539 15.8512L1.03344 14.2907C0.861734 12.5273 2.24757 11 4.01932 11H9.78954C10.8882 11 11.8989 11.6005 12.4243 12.5654L13.662 14.8386C13.8905 15.2582 14.384 15.4576 14.8399 15.3144L16.3462 14.8414C16.873 14.676 17.4344 14.9681 17.6002 15.494C17.7659 16.0199 17.4732 16.5803 16.9464 16.7457L14.6537 17.4657C13.7419 17.7521 12.7549 17.3533 12.2979 16.514L10.975 14.0842V19H3.27136V17.7948" stroke="#008EA1" stroke-linecap="round" stroke-linejoin="round"/>
<circle cx="6.93286" cy="6.03113" r="2.57446" stroke="#008EA1"/>
<path d="M14.8139 12.7025H17.8953C18.9998 12.7025 19.8953 11.807 19.8953 10.7025V3.43372C19.8953 2.32915 18.9998 1.43372 17.8953 1.43372H3.64404C2.53947 1.43372 1.64404 2.32915 1.64404 3.43372L1.64404 9.59146" stroke="#008EA1" stroke-linecap="round"/>
</svg>
