<svg width="32" height="29" viewBox="0 0 32 29" fill="none" xmlns="http://www.w3.org/2000/svg">
<path fill-rule="evenodd" clip-rule="evenodd" d="M16.1894 0.732422C7.77921 0.732422 0.929688 6.97242 0.929688 14.5991C0.929688 22.2258 7.77921 28.4658 16.1894 28.4658C24.5996 28.4658 31.4491 22.2258 31.4491 14.5991C31.4491 6.97242 24.5996 0.732422 16.1894 0.732422ZM16.1894 26.4724C8.90635 26.4724 2.92385 21.1858 2.92385 14.5991C2.92385 8.09909 8.90635 2.72575 16.1894 2.72575C23.4724 2.72575 29.4549 8.01242 29.4549 14.5991C29.4549 21.0991 23.5591 26.4724 16.1894 26.4724ZM16.1894 5.41242C10.7271 5.41242 6.30526 9.57242 6.30526 14.5991C6.30526 19.6258 10.7271 23.7858 16.1894 23.7858C18.0102 23.7858 19.8309 23.2658 21.3916 22.3991L20.3511 20.6658C19.0506 21.3591 17.6633 21.7924 16.1027 21.7924C14.9755 21.7924 13.9351 21.6191 13.0681 21.1858L14.1952 18.0658L22.3453 14.7724C23.4724 14.3391 24.2528 13.3858 24.5996 12.1724C24.8597 11.0458 24.5996 9.83242 23.8192 8.87909C22.0852 6.71242 19.224 5.41242 16.1894 5.41242ZM11.334 20.2324C9.51327 18.9324 8.29943 16.8524 8.29943 14.5991C8.29943 10.6991 11.6808 7.57909 15.9293 7.40576L11.334 20.2324ZM22.7788 11.6524C22.6054 12.1724 22.2586 12.6924 21.7384 12.8658L15.2357 15.4658L18.0969 7.66575C19.8309 8.01242 21.3049 8.96575 22.432 10.2658C22.7788 10.6124 22.8655 11.1324 22.7788 11.6524Z" fill="#1680DB"/>
</svg>
