<svg width="81" height="184" viewBox="0 0 81 184" fill="none" xmlns="http://www.w3.org/2000/svg">
<path d="M46.9969 50.5857C44.7503 55.4035 42.6098 59.8544 40.5868 64.3581C37.6274 70.9449 33.4088 76.5052 27.8219 81.1223C24.3802 83.9635 22.863 88.0366 22.0743 92.312C20.8362 99.0531 21.9597 105.714 23.0764 112.349C23.4962 114.839 24.1337 117.291 24.6721 119.759L25.3431 119.719C25.3451 117.948 25.5511 116.15 25.3073 114.414C24.6331 109.636 24.286 104.859 25.0843 100.081C26.1453 93.7252 28.1194 87.7063 32.4859 82.7713C33.6648 81.4362 35.1846 80.4029 36.7537 79.3808C35.0875 84.1846 34.813 89.1033 34.3554 93.9972C34.131 96.3848 33.8592 98.774 33.4488 101.133C32.6937 105.481 31.1023 109.541 29.1142 113.478C26.4458 118.767 25.7078 124.196 28.0612 129.891C31.0242 137.065 34.6794 143.832 39.2061 150.13C39.4766 150.507 39.7745 150.861 40.0976 151.277C40.3344 149.58 39.5873 146.56 38.4719 144.635C35.3141 139.179 32.7938 133.486 31.9118 127.176C31.13 121.591 31.6689 116.139 33.7606 110.891C34.3078 109.517 35.139 108.26 35.8435 106.95L36.2247 107.07C36.2425 108.176 36.1125 109.312 36.3128 110.386C36.6753 112.32 37.0928 114.268 37.7435 116.121C39.9143 122.286 41.9371 128.484 42.1003 135.089C42.163 137.688 42.0378 140.309 41.7528 142.892C41.3216 146.835 41.9773 150.607 43.3353 154.249C43.8684 155.675 44.7913 157.042 45.8121 158.186C50.945 163.932 56.7668 168.897 63.2096 173.132C63.375 173.24 63.5659 173.313 63.7425 173.403C63.8734 173.29 64.0012 173.177 64.1321 173.064C63.2386 172.03 62.3763 170.968 61.4486 169.963C58.2703 166.525 54.7848 163.327 51.9471 159.63C47.6655 154.055 45.5176 147.6 46.0207 140.47C46.1523 138.599 46.6867 136.758 47.269 134.91C48.3179 140.217 51.5071 144.235 54.6751 148.213C59.4026 154.141 62.8025 160.694 64.5256 168.088C65.5672 172.56 68.1817 175.879 71.992 178.288C74.3141 179.758 76.7223 181.092 79.372 182.652C78.6816 182.885 78.1992 183.145 77.6964 183.201C75.0066 183.509 72.4233 183.385 70.058 181.75C65.4242 178.55 60.4575 176.156 54.7794 175.33C51.849 174.903 48.9813 174.039 46.0993 173.318C38.018 171.297 30.8329 167.528 24.4184 162.229C22.6928 160.804 20.9392 159.375 19.0512 158.188C17.2164 157.034 15.1871 156.188 12.7708 154.966C14.896 154.828 16.6148 154.538 18.3168 154.634C27.6837 155.167 35.8981 158.775 43.2934 164.364C45.6181 166.121 47.7786 168.103 49.9172 170.083C51.7822 171.813 53.9691 172.75 56.5716 173.059C56.2724 172.78 55.9732 172.502 55.674 172.223C52.0487 168.85 48.3426 165.561 44.8323 162.077C42.7212 159.98 40.4297 158.33 37.6868 157.164C29.6187 153.728 22.0888 149.416 15.9286 143.028C11.2587 138.185 7.64326 132.712 5.96707 126.102C5.82783 125.547 5.73377 124.981 5.63627 124.417C5.61299 124.273 5.66044 124.114 5.69615 123.759C6.0872 124.126 6.35588 124.395 6.64545 124.644C9.20077 126.862 11.6052 129.297 14.3513 131.244C21.6119 136.388 27.7384 142.517 32.0938 150.331C33.5172 152.884 35.7184 154.399 38.5681 155.097C38.5685 154.905 38.6059 154.783 38.5624 154.716C35.5039 149.868 32.5333 144.96 29.3231 140.213C28.1783 138.518 26.6023 137.013 24.9582 135.778C15.2703 128.489 9.00349 118.875 5.27501 107.456C4.2143 104.206 3.31159 100.855 0.721878 98.3232L0.987511 97.9345C2.14576 98.4003 3.36545 98.7558 4.45416 99.3499C7.93205 101.248 10.443 104.187 12.6582 107.377C16.9816 113.602 20.1489 120.37 21.9845 127.742C22.7357 130.753 23.4566 131.75 26.417 133.725C26.2625 133.197 26.1677 132.825 26.0467 132.464C24.7832 128.602 23.4098 124.77 22.2759 120.871C20.7118 115.493 18.0131 110.697 15.0374 106.028C9.92293 98.0026 7.37389 89.1847 6.97187 79.73C6.86707 77.2369 7.08782 74.7294 7.19424 72.2323C7.2214 71.5869 7.38967 70.9462 7.55912 69.8871C10.4397 74.6889 12.7579 79.2642 14.5033 84.1217C16.6596 90.1186 17.851 96.2923 17.5741 102.674C17.457 105.371 18.1881 107.675 19.9107 109.913C19.6646 106.603 19.1939 103.463 19.2449 100.328C19.3714 92.6569 17.7106 85.3316 15.5285 78.0577C13.2355 70.4172 13.5163 62.7145 15.2605 55.0081C16.1896 50.901 17.0726 46.783 18.0118 42.5133C18.5266 43.2762 19.1999 44.0896 19.6676 45.0082C21.44 48.4714 21.9154 52.2541 22.1836 56.0631C22.6817 63.1865 21.6291 70.1161 19.2979 76.8385C18.3403 79.6023 18.6154 82.2164 19.7989 84.8714C20.1 83.0044 20.2873 81.1102 20.7205 79.2753C21.736 74.9661 22.8375 70.6781 23.9604 66.3955C25.2767 61.3802 25.3462 56.3088 24.9118 51.1804C24.3091 44.034 26.1281 37.43 29.6714 31.2638C30.6056 29.6398 31.603 28.0441 32.6674 26.5024C35.1538 22.8981 37.6573 19.3112 38.6925 14.9002C39.8345 17.0917 40.0005 19.3833 39.8353 21.7139C39.3927 28.0536 37.4209 33.9877 34.7015 39.6579C33.173 42.8425 31.3277 45.8915 29.4083 48.8638C27.7536 51.4254 26.8391 54.074 27.2506 57.3342C27.5025 56.8938 27.7083 56.5999 27.8543 56.2748C31.0345 49.213 34.9005 42.5601 39.564 36.3618C40.4575 35.1742 41.2196 33.7909 41.6702 32.3762C44.8718 22.381 51.1986 14.8176 59.5451 8.69713C62.5038 6.52789 65.1893 3.97876 67.8615 1.71777C68.1987 3.08894 67.8479 5.88862 66.764 8.84426C63.3279 18.2307 57.3154 25.7973 49.0379 31.1067C42.3513 35.3961 38.1412 41.404 34.3117 47.9442C32.8721 50.4016 31.6317 52.9733 30.4707 55.6003C32.6024 54.0527 34.1443 52.0493 35.4446 49.8202C40.3074 41.4835 46.8664 34.8339 55.3273 30.1409C57.9767 28.6705 60.7526 27.474 63.9125 27.6219C63.9093 27.8104 63.9479 27.959 63.9005 27.992C59.4422 31.055 56.8222 35.7377 53.5057 39.8061C49.2916 44.9767 44.1977 48.948 38.2952 52.1049C32.5855 55.1585 28.1389 59.733 26.3209 66.1074C24.6538 71.9526 23.5769 77.9674 22.2461 83.9093C22.1611 84.2847 22.1625 84.6781 22.1239 85.0612L22.7061 85.2173C23.4887 82.7852 24.363 80.3811 25.0416 77.9196C27.7949 67.9076 32.6554 59.3126 41.4859 53.417C43.1755 52.2906 45.1117 51.5288 46.9823 50.5748L46.9969 50.5857Z" fill="#EEF2F5" stroke="#C9C9C9"/>
</svg>
