<svg width="20" height="20" viewBox="0 0 20 20" fill="none" xmlns="http://www.w3.org/2000/svg">
<path d="M9.96056 1.5C13.0006 1.52 15.5706 3.73 16.0806 6.75C16.2706 7.89 16.0406 8.95 15.6106 9.99C14.9406 11.61 14.0606 13.12 13.0706 14.56C12.2206 15.8 11.3206 17.01 10.4306 18.23C10.1706 18.59 9.75056 18.59 9.48056 18.24C7.96056 16.28 6.53056 14.27 5.32056 12.1C4.73056 11.04 4.19056 9.96 3.89056 8.77C3.59056 7.56 3.77056 6.39 4.27056 5.27C5.18056 3.23 6.77056 2.01 8.96056 1.6C9.29056 1.54 9.62056 1.53 9.96056 1.5ZM7.70056 7.18C7.70056 8.42 8.71056 9.44 9.95056 9.44C11.1906 9.44 12.2106 8.42 12.2106 7.18C12.2106 5.94 11.2006 4.91 9.97056 4.91C8.74056 4.91 7.71056 5.92 7.71056 7.17L7.70056 7.18Z" fill="white"/>
<path d="M9.96058 19C9.63058 19 9.32058 18.84 9.09058 18.55C7.31058 16.26 5.98058 14.29 4.89058 12.34C4.35058 11.37 3.75058 10.2 3.41058 8.89C3.10058 7.65 3.24058 6.36 3.82058 5.07C4.79058 2.88 6.49058 1.55 8.87058 1.11C9.10058 1.07 9.34058 1.05 9.57058 1.03L9.90058 1H9.96058C13.2406 1.02 16.0206 3.41 16.5706 6.67C16.7606 7.78 16.6006 8.89 16.0706 10.18C15.4606 11.67 14.6106 13.19 13.4806 14.85C12.8306 15.81 12.1406 16.74 11.4606 17.68L10.8406 18.53C10.6206 18.83 10.3106 19 9.98058 19.01H9.96058V19ZM9.96058 2C9.89058 2 9.77058 2.02 9.65058 2.03C9.45058 2.04 9.25058 2.06 9.05058 2.1C7.02058 2.48 5.56058 3.61 4.73058 5.48C4.24058 6.58 4.12058 7.62 4.38058 8.65C4.68058 9.84 5.25058 10.94 5.76058 11.86C6.82058 13.76 8.13058 15.69 9.88058 17.94C9.92058 17.99 9.95058 18.01 9.96058 18.01L10.6506 17.09C11.3306 16.16 12.0106 15.24 12.6606 14.29C13.7506 12.7 14.5706 11.23 15.1506 9.81C15.6106 8.7 15.7406 7.76 15.5906 6.85C15.1206 4.07 12.7606 2.04 9.96058 2.02V2ZM9.96058 9.94C8.44058 9.94 7.21058 8.7 7.21058 7.18C7.21058 7.16 7.21058 7.14 7.21058 7.12C7.24058 5.62 8.47058 4.42 9.97058 4.42C11.4706 4.42 12.7106 5.66 12.7106 7.19C12.7106 7.92 12.4206 8.62 11.9006 9.14C11.3806 9.66 10.6906 9.94 9.97058 9.94H9.96058ZM8.20058 7.23C8.23058 8.17 9.00058 8.94 9.95058 8.94C10.4106 8.94 10.8506 8.76 11.1806 8.43C11.5206 8.1 11.7006 7.65 11.7006 7.19C11.7006 6.21 10.9206 5.42 9.96058 5.42C9.00058 5.42 8.20058 6.21 8.20058 7.18C8.20058 7.2 8.20058 7.22 8.20058 7.23Z" fill="#29B463"/>
</svg>
