<svg width="128" height="41" viewBox="0 0 128 41" fill="none" xmlns="http://www.w3.org/2000/svg">
<path d="M28.2345 37.4584C23.7057 41.9878 16.2937 41.9878 11.7643 37.4584L3.39714 29.0907C-1.13228 24.5612 -1.13228 17.1493 3.39655 12.6204L11.7643 4.25209C16.2937 -0.276737 23.7057 -0.276737 28.2345 4.25209L36.6023 12.6204C41.1317 17.1493 41.1317 24.5612 36.6023 29.0907L28.2345 37.4584Z" fill="#ED1C24"/>
<path d="M15.0331 33.1445C14.3679 33.1445 13.8256 32.6234 13.7979 31.9588C13.7844 31.6288 13.9003 31.313 14.1238 31.0701C14.3473 30.8266 14.6531 30.6843 14.9831 30.6713C15.6642 30.639 16.2423 31.1736 16.2711 31.8565C16.2988 32.5381 15.7677 33.1151 15.086 33.1434C15.0684 33.1439 15.0507 33.1445 15.0331 33.1445Z" fill="white"/>
<path d="M19.5375 10.3052C18.8582 10.3052 18.3147 10.5176 17.8748 10.9546C16.9261 11.898 16.4279 13.8442 16.4726 16.4356C16.5255 19.6299 17.2866 25.8979 19.7992 29.1246C20.2068 29.6475 20.6444 30.065 21.1014 30.3656C21.5437 30.6585 22.0395 30.9443 22.8147 30.9443C23.0247 30.9443 23.2505 30.9232 23.4864 30.8802C24.9274 30.535 26.7319 28.9311 28.074 26.7966C28.2787 26.4714 28.6304 26.2773 29.0145 26.2773C29.2227 26.2773 29.4268 26.3361 29.6038 26.4473C29.855 26.6055 30.0297 26.8519 30.0955 27.1407C30.1614 27.4301 30.1114 27.7277 29.9532 27.9783C28.2558 30.6773 26.0143 32.573 23.9587 33.0488C23.951 33.0517 23.9293 33.0564 23.9069 33.06C23.5299 33.1294 23.1588 33.1641 22.8065 33.1641C21.4802 33.1641 20.5444 32.6594 19.878 32.2189C19.2187 31.7831 18.6035 31.2008 18.0483 30.4891C14.5111 25.9462 14.2688 17.4296 14.2529 16.4739C14.2146 14.2071 14.5405 11.1369 16.3114 9.37947C17.1748 8.52253 18.2576 8.08788 19.5281 8.08788H19.7345C21.0085 8.08788 22.0924 8.52253 22.9559 9.37947C24.7262 11.1369 25.0521 14.2071 25.0144 16.4739C24.9738 18.8347 24.541 23.4083 22.093 27.5095C21.8931 27.8424 21.5278 28.05 21.139 28.05C20.9385 28.05 20.742 27.9959 20.5709 27.893C20.0462 27.5801 19.8739 26.8972 20.1868 26.3708C21.9007 23.5018 22.7288 20.3445 22.7941 16.4356C22.8382 13.8436 22.3401 11.8974 21.3914 10.9546C20.952 10.5176 20.4091 10.3052 19.7322 10.3052H19.5375Z" fill="white"/>
<path fill-rule="evenodd" clip-rule="evenodd" d="M71.2731 4.3219C65.8539 4.3219 62.6095 7.67368 62.6095 11.8097C62.6095 15.9498 65.8539 19.2975 71.2731 19.2975C76.6964 19.2975 79.9448 15.9498 79.9448 11.8097C79.9448 7.67368 76.6964 4.3219 71.2731 4.3219ZM71.2731 17.6903C68.6773 17.6903 66.7028 15.057 66.7028 11.8097C66.7028 8.5636 68.6773 5.9308 71.2731 5.9308C73.8759 5.9308 75.848 8.5636 75.848 11.8097C75.848 15.057 73.8759 17.6903 71.2731 17.6903Z" fill="#ED1C24"/>
<path d="M80.6839 6.53155H86.3849V18.6774H90.689V6.53155H95.5042V4.8753H80.6839V6.53155Z" fill="#ED1C24"/>
<path d="M101.881 6.53155H97.0698V4.8753H111.891V6.53155H106.178V18.6774H101.881V6.53155Z" fill="#ED1C24"/>
<path d="M54.0488 16.2012V4.87534H49.9238V17.031C49.9238 17.9406 50.6578 18.6757 51.5673 18.6757H62.1141V17.0235H54.8729C54.4208 17.0235 54.0488 16.6545 54.0488 16.2012Z" fill="#ED1C24"/>
<path d="M114.225 17.031V6.51542C114.225 5.60645 114.965 4.87534 115.871 4.87534H127.114V6.50214H119.179C118.722 6.50214 118.36 6.8752 118.36 7.32334V10.54H126.988V12.157H118.36V16.2237C118.36 16.677 118.722 17.0449 119.179 17.0449H127.114V18.6757H115.874C114.965 18.6757 114.225 17.94 114.225 17.031Z" fill="#ED1C24"/>
<path d="M51.854 32.0613C51.854 34.5439 53.8051 35.6758 55.6174 35.6758C56.6693 35.6758 57.5979 35.4651 58.231 35.0858L58.6397 34.8402L58.2105 36.8397L58.1238 36.8858C57.4352 37.2491 56.6841 37.389 55.4484 37.389C52.7697 37.389 49.9238 35.5228 49.9238 32.0613C49.9238 28.5916 52.7697 26.7183 55.4484 26.7183C56.9439 26.7183 57.9079 27.0879 58.4547 27.3946L58.5872 27.4705L58.2333 29.2143L57.9787 29.0506C57.5179 28.7524 56.5833 28.4327 55.6174 28.4327C53.8051 28.4327 51.854 29.5679 51.854 32.0613Z" fill="#054975"/>
<path d="M62.1558 31.1901H66.8284V26.9206H68.7364V37.2042H66.8284V32.887H62.1558V37.2042H60.2416V26.9206H62.1558V31.1901Z" fill="#054975"/>
<path d="M72.6375 32.8878H75.834V31.1901H72.6375V28.6178H76.4541V26.9206H70.7229V37.2042H76.993V35.5036H72.6375V32.8878Z" fill="#054975"/>
<path d="M84.1546 34.2523C84.4482 33.5916 87.8502 26.9202 87.8502 26.9202H89.093L90.0127 37.2039H88.174C88.174 37.2039 87.6697 31.5717 87.641 31.083C87.3373 31.7202 84.5022 37.2805 84.5022 37.2805H83.6938C83.6938 37.2805 80.8058 31.6629 80.5386 31.0997C80.5099 31.4957 80.0216 37.2039 80.0216 37.2039H78.2775L79.1648 26.9202H80.4061C80.4061 26.9202 83.9003 33.6951 84.1546 34.2523Z" fill="#054975"/>
<path d="M91.7782 37.2042H93.691V26.9206H91.7782V37.2042Z" fill="#054975"/>
<path d="M97.1945 32.0613C97.1945 34.5439 99.1464 35.6758 100.96 35.6758C102.012 35.6758 102.938 35.4651 103.572 35.0858L103.982 34.8402L103.552 36.8397L103.466 36.8858C102.777 37.2491 102.027 37.389 100.79 37.389C98.1128 37.389 95.2676 35.5228 95.2676 32.0613C95.2676 28.5916 98.1128 26.7183 100.79 26.7183C102.285 26.7183 103.25 27.0879 103.797 27.3946L103.928 27.4705L103.574 29.2143L103.32 29.0506C102.859 28.7524 101.925 28.4327 100.96 28.4327C99.1464 28.4327 97.1945 29.5679 97.1945 32.0613Z" fill="#054975"/>
<path fill-rule="evenodd" clip-rule="evenodd" d="M108.747 26.7818L104.371 37.2042H106.288L107.355 34.6509H110.91L111.977 37.2042H113.941L109.563 26.7818H108.747ZM110.232 33.0452H108.033C108.033 33.0452 109.061 30.499 109.135 30.2812C109.217 30.5287 110.232 33.0452 110.232 33.0452Z" fill="#054975"/>
<path d="M116.76 26.9156V35.5034H121.102V37.2037H114.845V26.9156H116.76Z" fill="#054975"/>
<path d="M119.678 20.9516C117.13 21.0034 115.024 23.0762 114.955 25.5833H116.65C116.719 23.9828 118.034 22.6478 119.678 22.6478H125.418V32.5335C125.418 34.1597 124.113 35.4545 122.434 35.507V37.2047C125.018 37.1053 127.059 35.066 127.115 32.5335V20.9516H119.678Z" fill="#8CC63F"/>
</svg>
