<svg width="20" height="20" viewBox="0 0 20 20" fill="none" xmlns="http://www.w3.org/2000/svg">
<path d="M2 7.39C3.02 8.02 4.04 8.65 5.05 9.28C6.51 10.18 7.97 11.09 9.42 12C9.81 12.24 10.17 12.24 10.56 12C12.97 10.5 15.39 9 17.81 7.5C17.86 7.47 17.92 7.44 18 7.39V13.5C18 14.96 16.98 15.99 15.53 16H5.3C4.85 16 4.39 16.02 3.94 15.95C2.94 15.8 2.18 14.98 2.03 13.97C2.03 13.94 2.01 13.91 2 13.88V7.39ZM4.44 4C3.32 4 2.4 4.69 2.11 5.74C2.08 5.85 2.09 5.91 2.2 5.97C4.77 7.56 7.34 9.15 9.9 10.75C9.98 10.8 10.04 10.8 10.12 10.75C10.43 10.55 10.74 10.36 11.05 10.17C13.29 8.78 15.53 7.38 17.78 5.99C17.9 5.92 17.93 5.85 17.88 5.73C17.81 5.58 17.77 5.42 17.69 5.28C17.22 4.43 16.5 4.02 15.55 4.02H4.44V4Z" fill="white"/>
<path d="M15.55 4C16.5 4 17.22 4.42 17.69 5.26C17.77 5.4 17.81 5.56 17.88 5.71C17.93 5.83 17.9 5.9 17.78 5.97C15.54 7.36 13.3 8.76 11.05 10.15C10.74 10.34 10.43 10.53 10.12 10.73C10.08 10.76 10.04 10.77 10 10.77C9.97 10.77 9.93 10.76 9.89 10.73C7.34 9.15 4.77 7.56 2.2 5.97C2.1 5.91 2.08 5.85 2.11 5.74C2.4 4.7 3.32 4 4.44 4H15.55ZM18 7.39V13.5C18 14.96 16.98 15.99 15.53 16H5.3C5.15 16 5 16 4.85 16C4.55 16 4.25 16 3.95 15.95C2.95 15.8 2.19 14.98 2.04 13.97C2.04 13.94 2.02 13.91 2.01 13.88V7.39C3.03 8.02 4.05 8.65 5.06 9.28C6.52 10.18 7.98 11.09 9.43 12C9.62 12.12 9.81 12.18 10 12.18C10.19 12.18 10.38 12.12 10.57 12C12.98 10.5 15.4 9 17.82 7.5C17.87 7.47 17.93 7.44 18.01 7.39M15.55 3H4.44C2.88 3 1.56 3.99 1.15 5.47C1.03 5.9 1.13 6.3 1.4 6.59C1.15 6.78 1 7.07 1 7.39V13.88C1 13.99 1.02 14.09 1.05 14.2V14.23C1.34 15.66 2.41 16.73 3.79 16.94C4.16 17 4.52 17 4.84 17H15.53C17.54 17 19 15.52 19 13.5V7.39C19 7.07 18.85 6.78 18.6 6.59C18.92 6.24 19 5.78 18.8 5.32C18.78 5.27 18.76 5.23 18.75 5.18C18.7 5.05 18.65 4.91 18.58 4.79C17.92 3.61 16.88 3 15.56 3L15.55 3Z" fill="#1680DB"/>
</svg>
