<svg width="21" height="20" viewBox="0 0 21 20" fill="none" xmlns="http://www.w3.org/2000/svg">
<path d="M6.34851 1.5H17.9801V16.7105C17.9801 17.6988 17.1789 18.5 16.1906 18.5H4.55904C4.55903 18.5 4.55905 18.5 4.55904 18.5C3.57074 18.5 2.76953 17.6988 2.76953 16.7105V10.4474H6.34848V14.4738L6.34851 1.5Z" fill="white"/>
<path d="M4.55904 18.5H16.1906C17.1789 18.5 17.9801 17.6988 17.9801 16.7105V1.5H6.34851L6.34848 14.4738V10.4474H2.76953V16.7105C2.76953 17.6988 3.57074 18.5 4.55904 18.5ZM4.55904 18.5C4.55905 18.5 4.55903 18.5 4.55904 18.5Z" stroke="#373BB5" stroke-width="0.944444"/>
<path d="M4.55908 18.5H16.1907C17.179 18.5 17.9801 17.6988 17.9801 16.7105V1.5H6.34856V14.4737" stroke="#373BB5" stroke-width="1.1" stroke-linejoin="round"/>
<path d="M6.34848 10.4474H2.76953V16.7105C2.76953 17.6988 3.57071 18.5 4.55901 18.5C5.5473 18.5 6.34848 17.6988 6.34848 16.7105V10.4474Z" stroke="#373BB5" stroke-width="1.1" stroke-linejoin="round"/>
<path d="M8.58545 6.86841H13.0591" stroke="#373BB5" stroke-width="1.1" stroke-linejoin="round"/>
<path d="M8.58545 10.4474H15.7433" stroke="#373BB5" stroke-width="1.1" stroke-linejoin="round"/>
<path d="M8.58545 14.0263H13.0591" stroke="#373BB5" stroke-width="1.1" stroke-linejoin="round"/>
</svg>
