<svg width="20" height="20" viewBox="0 0 20 20" fill="none" xmlns="http://www.w3.org/2000/svg">
<path d="M14.4672 18.4996C14.1469 18.4496 13.8266 18.4096 13.5064 18.3396C12.6657 18.1597 11.875 17.8299 11.1044 17.4601C8.06188 15.961 5.61986 13.7622 3.71829 10.9637C2.8876 9.75441 2.23707 8.44514 1.7967 7.04592C1.54649 6.23636 1.39637 5.39683 1.56651 4.53731C1.64658 4.12754 1.81672 3.76774 2.10696 3.4779C2.60737 2.96818 3.09778 2.46846 3.61821 1.97873C4.25874 1.36907 4.97933 1.36907 5.61986 1.97873C6.36047 2.69833 7.10109 3.44791 7.83169 4.1875C8.16196 4.51732 8.37214 4.89711 8.30208 5.38684C8.25204 5.74664 8.04186 6.02648 7.79166 6.27634C7.37131 6.69611 6.96097 7.10588 6.54062 7.52565C6.32044 7.74553 6.32044 7.7955 6.44054 8.07534C6.91093 9.13475 7.64153 10.0143 8.41217 10.8638C9.19281 11.7033 10.0435 12.4529 11.0143 13.0626C11.3446 13.2725 11.7049 13.4324 12.0452 13.6223C12.2053 13.7122 12.3254 13.6423 12.4355 13.5323C12.8658 13.1025 13.2862 12.6728 13.7166 12.253C13.8467 12.1231 13.9868 12.0032 14.1469 11.9132C14.6373 11.6134 15.1778 11.6634 15.6281 12.0232C15.7182 12.0931 15.8083 12.1731 15.8883 12.253C16.5789 12.9426 17.2795 13.6323 17.9701 14.3319C18.1402 14.5018 18.3003 14.7017 18.3904 14.9215C18.6106 15.3913 18.5205 15.851 18.1903 16.2208C17.6498 16.8205 17.0693 17.3902 16.4888 17.9499C16.1686 18.2597 15.7582 18.4096 15.3179 18.4896C15.2678 18.4896 15.2078 18.5195 15.1577 18.5295H14.4672V18.4996Z" fill="white"/>
<path d="M15.1669 19H14.4664C14.4664 19 14.3663 19 14.3262 18.98L14.1461 18.95C13.9059 18.9101 13.6557 18.8701 13.4155 18.8201C12.6348 18.6602 11.8642 18.3703 10.8934 17.8906C7.85089 16.3914 5.30879 14.1527 3.31715 11.2243C2.43642 9.92504 1.76586 8.5658 1.3255 7.17657C1.11533 6.50694 0.86512 5.4975 1.0853 4.4181C1.19539 3.89839 1.41557 3.45863 1.76586 3.10883C2.26628 2.59911 2.76669 2.08939 3.28712 1.59967C4.11781 0.800111 5.14866 0.800111 5.97935 1.59967C6.72997 2.32926 7.46057 3.06885 8.19117 3.81843C8.67157 4.30816 8.88175 4.85786 8.79167 5.43753C8.71161 5.97723 8.40135 6.34703 8.14113 6.60688L6.90011 7.8462C7.36049 8.86563 8.08108 9.72515 8.78166 10.4947C9.60234 11.3842 10.423 12.0738 11.2737 12.6036C11.4839 12.7335 11.7041 12.8434 11.9143 12.9534L12.1344 13.0733L12.2846 12.9234C12.6449 12.5636 12.9951 12.2038 13.3655 11.844C13.5456 11.6641 13.7157 11.5341 13.8859 11.4242C14.5564 11.0244 15.3271 11.0744 15.9376 11.5841C16.0477 11.6741 16.1377 11.754 16.2378 11.844L16.5781 12.1838C17.1586 12.7635 17.7391 13.3331 18.3195 13.9228C18.5597 14.1627 18.7299 14.4125 18.84 14.6624C19.1302 15.2921 19.0201 15.9817 18.5497 16.5014C17.9793 17.131 17.3688 17.7307 16.8283 18.2504C16.468 18.6002 15.9976 18.8201 15.3971 18.92C15.3971 18.92 15.277 18.95 15.267 18.95C15.227 18.95 15.197 18.96 15.1569 18.96L15.1669 19ZM14.5364 18.0006H15.0969C15.1569 17.9806 15.207 17.9706 15.247 17.9706C15.6373 17.9006 15.9276 17.7707 16.1377 17.5708C16.6882 17.0411 17.2687 16.4714 17.8091 15.8617C18.0193 15.6319 18.0593 15.382 17.9292 15.1122C17.8692 14.9622 17.7591 14.8223 17.599 14.6624C17.0285 14.0827 16.448 13.5031 15.8775 12.9334L15.5272 12.5936C15.4572 12.5236 15.3771 12.4536 15.3071 12.3937C15.1069 12.2338 14.7866 12.0938 14.4063 12.3237C14.2962 12.3837 14.1961 12.4736 14.076 12.5936C13.7157 12.9434 13.3655 13.3032 13.0052 13.663L12.795 13.8828C12.3946 14.2826 12.0043 14.1727 11.8142 14.0627L11.4739 13.8828C11.2337 13.7529 10.9835 13.633 10.7533 13.4831C9.82252 12.9034 8.9418 12.1538 8.05106 11.2043C7.28042 10.3648 6.49978 9.43531 5.98936 8.28595C5.77918 7.81621 5.82922 7.53637 6.18952 7.17657L7.44055 5.92726C7.67074 5.69739 7.78084 5.51749 7.81086 5.3176C7.85089 5.04775 7.75081 4.81788 7.48059 4.53803C6.74998 3.79845 6.01938 3.05886 5.27877 2.33926C4.8384 1.90949 4.41806 1.90949 3.97769 2.33926C3.46727 2.82898 2.97687 3.32871 2.47645 3.82843C2.26628 4.03831 2.13617 4.30816 2.06611 4.63798C1.936 5.29761 2.00606 5.99722 2.28629 6.89672C2.69663 8.196 3.31715 9.4653 4.14783 10.6846C6.0394 13.4631 8.4614 15.5919 11.3438 17.0111C12.2345 17.4509 12.9351 17.7107 13.6257 17.8506C13.8458 17.9006 14.076 17.9306 14.3062 17.9706L14.5464 18.0105L14.5364 18.0006Z" fill="#29B463"/>
</svg>
