<svg width="20" height="20" viewBox="0 0 20 20" fill="none" xmlns="http://www.w3.org/2000/svg">
<path d="M14.4674 18.4996C14.1472 18.4496 13.8269 18.4096 13.5066 18.3396C12.6659 18.1597 11.8753 17.8299 11.1046 17.4601C8.06212 15.961 5.6201 13.7622 3.71853 10.9637C2.88785 9.75441 2.23731 8.44514 1.79695 7.04592C1.54674 6.23636 1.39661 5.39683 1.56675 4.53731C1.64682 4.12754 1.81696 3.76774 2.1072 3.4779C2.60762 2.96818 3.09802 2.46846 3.61845 1.97873C4.25898 1.36907 4.97958 1.36907 5.62011 1.97873C6.36072 2.69833 7.10133 3.44791 7.83193 4.1875C8.16221 4.51732 8.37238 4.89711 8.30232 5.38684C8.25228 5.74664 8.04211 6.02648 7.7919 6.27634C7.37155 6.69611 6.96121 7.10588 6.54087 7.52565C6.32068 7.74553 6.32068 7.7955 6.44078 8.07534C6.91117 9.13475 7.64178 10.0143 8.41241 10.8638C9.19306 11.7033 10.0438 12.4529 11.0146 13.0626C11.3448 13.2725 11.7051 13.4324 12.0454 13.6223C12.2055 13.7122 12.3256 13.6423 12.4357 13.5323C12.8661 13.1025 13.2864 12.6728 13.7168 12.253C13.8469 12.1231 13.987 12.0032 14.1472 11.9132C14.6376 11.6134 15.178 11.6634 15.6284 12.0232C15.7185 12.0931 15.8085 12.1731 15.8886 12.253C16.5792 12.9426 17.2797 13.6323 17.9703 14.3319C18.1405 14.5018 18.3006 14.7017 18.3907 14.9215C18.6108 15.3913 18.5208 15.851 18.1905 16.2208C17.65 16.8205 17.0696 17.3902 16.4891 17.9499C16.1688 18.2597 15.7585 18.4096 15.3181 18.4896C15.2681 18.4896 15.208 18.5195 15.158 18.5295H14.4674V18.4996Z" fill="white"/>
<path d="M15.1672 19H14.4666C14.4666 19 14.3665 19 14.3265 18.98L14.1463 18.95C13.9061 18.9101 13.6559 18.8701 13.4157 18.8201C12.6351 18.6602 11.8645 18.3703 10.8937 17.8906C7.85114 16.3914 5.30904 14.1527 3.31739 11.2243C2.43666 9.92504 1.76611 8.5658 1.32574 7.17657C1.11557 6.50694 0.865364 5.4975 1.08555 4.4181C1.19564 3.89839 1.41582 3.45863 1.76611 3.10883C2.26652 2.59911 2.76694 2.08939 3.28737 1.59967C4.11805 0.800111 5.1489 0.800111 5.97959 1.59967C6.73021 2.32926 7.46082 3.06885 8.19142 3.81843C8.67182 4.30816 8.88199 4.85786 8.79192 5.43753C8.71185 5.97723 8.40159 6.34703 8.14138 6.60688L6.90035 7.8462C7.36073 8.86563 8.08133 9.72515 8.78191 10.4947C9.60259 11.3842 10.4233 12.0738 11.274 12.6036C11.4841 12.7335 11.7043 12.8434 11.9145 12.9534L12.1347 13.0733L12.2848 12.9234C12.6451 12.5636 12.9954 12.2038 13.3657 11.844C13.5458 11.6641 13.716 11.5341 13.8861 11.4242C14.5567 11.0244 15.3273 11.0744 15.9378 11.5841C16.0479 11.6741 16.138 11.754 16.2381 11.844L16.5784 12.1838C17.1588 12.7635 17.7393 13.3331 18.3198 13.9228C18.56 14.1627 18.7301 14.4125 18.8402 14.6624C19.1305 15.2921 19.0204 15.9817 18.55 16.5014C17.9795 17.131 17.369 17.7307 16.8286 18.2504C16.4683 18.6002 15.9979 18.8201 15.3974 18.92C15.3974 18.92 15.2773 18.95 15.2673 18.95C15.2272 18.95 15.1972 18.96 15.1572 18.96L15.1672 19ZM14.5367 18.0006H15.0971C15.1572 17.9806 15.2072 17.9706 15.2472 17.9706C15.6376 17.9006 15.9278 17.7707 16.138 17.5708C16.6884 17.0411 17.2689 16.4714 17.8094 15.8617C18.0195 15.6319 18.0596 15.382 17.9295 15.1122C17.8694 14.9622 17.7593 14.8223 17.5992 14.6624C17.0287 14.0827 16.4482 13.5031 15.8778 12.9334L15.5275 12.5936C15.4574 12.5236 15.3774 12.4536 15.3073 12.3937C15.1071 12.2338 14.7869 12.0938 14.4066 12.3237C14.2965 12.3837 14.1964 12.4736 14.0763 12.5936C13.716 12.9434 13.3657 13.3032 13.0054 13.663L12.7952 13.8828C12.3949 14.2826 12.0046 14.1727 11.8144 14.0627L11.4741 13.8828C11.2339 13.7529 10.9837 13.633 10.7535 13.4831C9.82277 12.9034 8.94204 12.1538 8.0513 11.2043C7.28067 10.3648 6.50002 9.43531 5.9896 8.28595C5.77943 7.81621 5.82947 7.53637 6.18976 7.17657L7.4408 5.92726C7.67099 5.69739 7.78108 5.51749 7.8111 5.3176C7.85114 5.04775 7.75106 4.81788 7.48083 4.53803C6.75023 3.79845 6.01962 3.05886 5.27901 2.33926C4.83865 1.90949 4.4183 1.90949 3.97794 2.33926C3.46751 2.82898 2.97711 3.32871 2.4767 3.82843C2.26652 4.03831 2.13641 4.30816 2.06636 4.63798C1.93625 5.29761 2.00631 5.99722 2.28654 6.89672C2.69688 8.196 3.31739 9.4653 4.14808 10.6846C6.03964 13.4631 8.46164 15.5919 11.344 17.0111C12.2348 17.4509 12.9353 17.7107 13.6259 17.8506C13.8461 17.9006 14.0763 17.9306 14.3065 17.9706L14.5467 18.0105L14.5367 18.0006Z" fill="#29B463"/>
</svg>
