<svg width="27" height="26" viewBox="0 0 27 26" fill="none" xmlns="http://www.w3.org/2000/svg">
<path d="M12.3879 0.773878C9.31543 1.09108 6.58246 2.46759 4.4824 4.75113C1.51989 7.97142 0.527432 12.6388 1.9136 16.8411C2.54206 18.7458 3.53452 20.3385 4.9868 21.7685C6.91452 23.6635 9.25377 24.8009 12.0536 25.199C12.6241 25.2807 14.508 25.2755 15.0978 25.1938C17.9073 24.8053 20.3283 23.6063 22.2753 21.634C24.2119 19.6722 25.3485 17.3455 25.7511 14.5145C25.8329 13.9484 25.8329 12.0579 25.7511 11.4918C25.5209 9.87536 25.0506 8.41639 24.3367 7.12605C23.7844 6.11454 23.0902 5.18722 22.2753 4.37228C20.3669 2.43862 17.9935 1.23965 15.2657 0.836278C14.6759 0.750106 12.974 0.711478 12.3894 0.773878H12.3879ZM19.292 8.17719C19.503 8.26782 19.604 8.46988 19.604 8.80565C19.604 9.11245 17.576 18.7458 17.4705 18.9568C17.3167 19.2539 16.9862 19.3654 16.6504 19.2406C16.5353 19.1967 15.4284 18.3959 13.8075 17.1918L13.4049 16.8946L12.5372 17.7244C11.8998 18.3283 11.6213 18.5683 11.5061 18.5928C11.4199 18.6121 11.3382 18.6166 11.3286 18.6024C11.3145 18.5876 11.3479 17.8923 11.4058 17.0476L11.5061 15.5218L11.8463 15.2098C12.0291 15.0375 13.3283 13.8623 14.7286 12.595C16.1326 11.3247 17.2789 10.2587 17.2789 10.2208C17.2789 10.168 17.2261 10.1487 17.111 10.1539C16.9721 10.1584 16.2619 10.5848 13.3855 12.3937C11.4341 13.6268 9.80943 14.6348 9.78046 14.6348C9.6512 14.6348 6.62555 13.661 6.48217 13.574C6.17537 13.3824 6.24223 13.0986 6.6404 12.8735C6.74589 12.8163 7.50806 12.5043 8.33709 12.1879C9.16686 11.8662 10.7343 11.2615 11.8137 10.8448L16.1044 9.18896C18.9087 8.10439 18.8797 8.11479 19.0194 8.10959C19.0766 8.10959 19.2014 8.13856 19.292 8.17645V8.17719Z" fill="white"/>
</svg>
