<svg width="27" height="26" viewBox="0 0 27 26" fill="none" xmlns="http://www.w3.org/2000/svg">
<path fill-rule="evenodd" clip-rule="evenodd" d="M20.4048 17.8176C20.1166 18.6332 18.9711 19.3085 18.0574 19.5061C17.4312 19.6383 16.6163 19.7438 13.8677 18.605C10.7804 17.3258 6.4941 12.7706 6.4941 9.739C6.4941 8.19534 7.38405 6.39837 8.93959 6.39837C9.68839 6.39837 9.8533 6.41323 10.0999 7.0038C10.3882 7.69985 11.0916 9.41585 11.1748 9.59117C11.521 10.3132 10.8235 10.7352 10.3176 11.3636C10.1564 11.5523 9.9729 11.7573 10.1779 12.1087C10.3807 12.4534 11.0842 13.5989 12.1175 14.5193C13.4524 15.7079 14.5348 16.0882 14.9226 16.2501C15.2108 16.369 15.5547 16.3415 15.7657 16.1164C16.0324 15.8282 16.3637 15.3498 16.701 14.8781C16.9387 14.5408 17.241 14.4992 17.5582 14.6181C17.7722 14.6924 20.4925 15.956 20.6076 16.1588C20.6931 16.3059 20.6931 17.0019 20.4048 17.8176ZM13.445 0.928711H13.4391C6.84622 0.928711 1.48279 6.29288 1.48279 12.8887C1.48279 15.5036 2.32593 17.9305 3.75965 19.8983L2.27022 24.3421L6.86702 22.8735C8.81727 24.166 11.1061 24.8532 13.4458 24.8487C20.0394 24.8487 25.4035 19.4845 25.4035 12.8887C25.4035 6.29288 20.0394 0.928711 13.445 0.928711Z" fill="white"/>
</svg>
