<svg width="34" height="36" viewBox="0 0 34 36" fill="none" xmlns="http://www.w3.org/2000/svg">
<path d="M27.8825 34.1857L28.2534 34.6526L28.7226 34.2846L32.4529 31.3589L32.9284 30.9859L32.552 30.5131L22.427 17.7947L32.5515 5.11255L32.929 4.63959L32.4529 4.2661L28.7226 1.34039L28.2539 0.972835L27.8829 1.43873L15.1561 17.4204L14.8588 17.7938L15.1557 18.1675L27.8825 34.1857ZM14.5339 34.1857L14.9048 34.6526L15.374 34.2846L19.1043 31.3589L19.5798 30.9859L19.2034 30.5131L9.07847 17.7947L19.2029 5.11255L19.5805 4.63959L19.1043 4.2661L15.374 1.34039L14.9054 0.972835L14.5344 1.43873L1.8075 17.4204L1.51019 17.7938L1.80708 18.1675L14.5339 34.1857Z" fill="#EEF2F5" stroke="#29B463" stroke-width="1.2"/>
</svg>
