<svg width="52" height="53" viewBox="0 0 52 53" fill="none" xmlns="http://www.w3.org/2000/svg">
<path d="M47.6666 21.625C46.7783 21.625 46.0416 20.8883 46.0416 20V15.6667C46.0416 10.0767 42.4233 6.45834 36.8333 6.45834H15.1666C9.57665 6.45834 5.95831 10.0767 5.95831 15.6667V20C5.95831 20.8883 5.22165 21.625 4.33331 21.625C3.44498 21.625 2.70831 20.8883 2.70831 20V15.6667C2.70831 8.21334 7.71331 3.20834 15.1666 3.20834H36.8333C44.2866 3.20834 49.2916 8.21334 49.2916 15.6667V20C49.2916 20.8883 48.555 21.625 47.6666 21.625Z" fill="#FF5248"/>
<path d="M36.8333 49.7917H15.1666C7.71331 49.7917 2.70831 44.7867 2.70831 37.3333V33C2.70831 32.1117 3.44498 31.375 4.33331 31.375C5.22165 31.375 5.95831 32.1117 5.95831 33V37.3333C5.95831 42.9233 9.57665 46.5417 15.1666 46.5417H36.8333C42.4233 46.5417 46.0416 42.9233 46.0416 37.3333V33C46.0416 32.1117 46.7783 31.375 47.6666 31.375C48.555 31.375 49.2916 32.1117 49.2916 33V37.3333C49.2916 44.7867 44.2866 49.7917 36.8333 49.7917Z" fill="#FF5248"/>
<path d="M47.6666 28.125H4.33331C3.44498 28.125 2.70831 27.3883 2.70831 26.5C2.70831 25.6117 3.44498 24.875 4.33331 24.875H47.6666C48.555 24.875 49.2916 25.6117 49.2916 26.5C49.2916 27.3883 48.555 28.125 47.6666 28.125Z" fill="#FF5248"/>
<path d="M35.75 20H16.25C15.6434 20 15.1667 19.5233 15.1667 18.9167V14.5833C15.1667 12.785 16.6184 11.3333 18.4167 11.3333H33.5834C35.3817 11.3333 36.8334 12.785 36.8334 14.5833V18.9167C36.8334 19.5233 36.3567 20 35.75 20Z" fill="#FF5248"/>
<path d="M35.75 33H16.25C15.6434 33 15.1667 33.4767 15.1667 34.0833V38.4167C15.1667 40.215 16.6184 41.6667 18.4167 41.6667H33.5834C35.36 41.6667 36.8334 40.215 36.8334 38.4167V34.0833C36.8334 33.4767 36.3567 33 35.75 33Z" fill="#FF5248"/>
</svg>
